<svg xmlns="http://www.w3.org/2000/svg" width="24.557" height="27.134" viewBox="0 0 24.557 27.134">
  <g id="_1" data-name="1" transform="translate(1.027 1.037)">
    <path id="Path_341" data-name="Path 341" d="M25.5,19.5V9.5a2.5,2.5,0,0,0-1.25-2.163l-8.75-5a2.5,2.5,0,0,0-2.5,0l-8.75,5A2.5,2.5,0,0,0,3,9.5v10a2.5,2.5,0,0,0,1.25,2.162l8.75,5a2.5,2.5,0,0,0,2.5,0l8.75-5A2.5,2.5,0,0,0,25.5,19.5Z" transform="translate(-3 -2.002)" fill="rgba(58,122,254,0.1)" stroke="#000" stroke-linecap="round" stroke-linejoin="round" stroke-width="2" stroke-dasharray="61 81"/>
    <path id="Path_342" data-name="Path 342" d="M3.27,6.96l10.912,6.312L25.095,6.96" transform="translate(-2.932 -0.763)" fill="rgba(58,122,254,0.1)" stroke="#000" stroke-linecap="round" stroke-linejoin="round" stroke-width="2" stroke-dasharray="21 41"/>
    <path id="Path_343" data-name="Path 343" d="M12,24.6V12" transform="translate(-0.75 0.497)" fill="rgba(58,122,254,0.1)" stroke="#000" stroke-linecap="round" stroke-linejoin="round" stroke-width="2" stroke-dasharray="11 31"/>
  </g>
</svg>
