<svg xmlns="http://www.w3.org/2000/svg" width="30" height="30" viewBox="0 0 30 30">
  <g id="_3" data-name="3" transform="translate(-0.25 -0.233)">
    <rect id="Rectangle_364" data-name="Rectangle 364" width="30" height="30" transform="translate(0.25 0.233)" fill="none"/>
    <path id="Path_785" data-name="Path 785" d="M8.313,2.5A1.562,1.562,0,0,0,6.75,4.063V24.687A1.562,1.562,0,0,0,8.313,26.25h10a1.562,1.562,0,0,0,1.563-1.562V4.063A1.562,1.562,0,0,0,18.313,2.5Z" transform="translate(1.688 0.625)" fill="#d3d9e7" fill-rule="evenodd"/>
    <path id="Path_786" data-name="Path 786" d="M8.688,2.875A1.562,1.562,0,0,0,7.125,4.437V25.062a1.562,1.562,0,0,0,1.563,1.563h10a1.562,1.562,0,0,0,1.563-1.562V4.437a1.562,1.562,0,0,0-1.562-1.562ZM8.688,1h10a3.437,3.437,0,0,1,3.438,3.437V25.062A3.437,3.437,0,0,1,18.688,28.5h-10A3.437,3.437,0,0,1,5.25,25.062V4.437A3.438,3.438,0,0,1,8.688,1Zm1.875.937h6.25a.625.625,0,0,1,.625.625v1.25a.625.625,0,0,1-.625.625h-6.25a.625.625,0,0,1-.625-.625V2.563A.625.625,0,0,1,10.563,1.937Z" transform="translate(1.313 0.25)"/>
  </g>
</svg>
