<svg xmlns="http://www.w3.org/2000/svg" width="30" height="30" viewBox="0 0 30 30">
  <g id="_4" data-name="4" transform="translate(-0.25 0.017)">
    <rect id="Rectangle_70" data-name="Rectangle 70" width="30" height="30" transform="translate(0.25 -0.017)" fill="none"/>
    <path id="Path_319" data-name="Path 319" d="M3.25,4H24.5a1.25,1.25,0,0,1,1.25,1.25v2.5A1.25,1.25,0,0,1,24.5,9H3.25A1.25,1.25,0,0,1,2,7.75V5.25A1.25,1.25,0,0,1,3.25,4ZM12,11.5H24.5a1.25,1.25,0,0,1,1.25,1.25v2.5A1.25,1.25,0,0,1,24.5,16.5H12a1.25,1.25,0,0,1-1.25-1.25v-2.5A1.25,1.25,0,0,1,12,11.5ZM12,19H24.5a1.25,1.25,0,0,1,1.25,1.25v2.5A1.25,1.25,0,0,1,24.5,24H12a1.25,1.25,0,0,1-1.25-1.25v-2.5A1.25,1.25,0,0,1,12,19Z" transform="translate(0.5 1)" fill-rule="evenodd"/>
    <rect id="Rectangle_71" data-name="Rectangle 71" width="7" height="12" rx="1" transform="translate(2.25 12.983)" fill="#d3d9e7"/>
  </g>
</svg>
