<svg xmlns="http://www.w3.org/2000/svg" width="30" height="30" viewBox="0 0 30 30">
  <g id="svgexport-211" transform="translate(-0.25 0.267)">
    <rect id="Rectangle_291" data-name="Rectangle 291" width="30" height="30" transform="translate(0.25 -0.267)" fill="none"/>
    <path id="Path_699" data-name="Path 699" d="M12.225,3V13a1.255,1.255,0,0,0,.039.312,2.5,2.5,0,1,0,2.422,0A1.255,1.255,0,0,0,14.725,13V3l5.991,11.981a1.25,1.25,0,0,1,.031,1.051l-3.359,7.838a.625.625,0,0,1-.574.379H10.137a.625.625,0,0,1-.574-.379L6.2,16.033a1.25,1.25,0,0,1,.031-1.051Z" transform="translate(1.525 0.75)" fill="#3a7afe" fill-rule="evenodd"/>
    <path id="Path_700" data-name="Path 700" d="M10.25,21h5a1.25,1.25,0,0,1,1.25,1.25V23.5H9V22.25A1.25,1.25,0,0,1,10.25,21Z" transform="translate(2.25 5.25)" fill="#d3d9e7" fill-rule="evenodd"/>
  </g>
</svg>
