<svg xmlns="http://www.w3.org/2000/svg" width="367.539" height="738.503" viewBox="0 0 367.539 738.503">
  <g id="viewer" transform="translate(-1572 -126.533)">
    <g id="white-mockup" transform="translate(1572 126.532)">
      <path id="Exclusion_7" data-name="Exclusion 7" d="M312.711,738.5H54.828a51.365,51.365,0,0,1-51.4-51.4V272.441A3.434,3.434,0,0,1,0,269.012V222.75a3.433,3.433,0,0,1,3.428-3.429V205.615A3.433,3.433,0,0,1,0,202.187V155.925a3.434,3.434,0,0,1,3.428-3.43V126.8A3.434,3.434,0,0,1,0,123.369V102.806a3.431,3.431,0,0,1,3.428-3.424V51.4A51.359,51.359,0,0,1,54.828,0H312.711a51.363,51.363,0,0,1,51.4,51.4V170.488a3.435,3.435,0,0,1,3.43,3.429v77.1a3.433,3.433,0,0,1-3.43,3.429V687.1a51.359,51.359,0,0,1-51.4,51.4ZM57.4,21.416a34.245,34.245,0,0,0-34.27,34.271V682.818A34.229,34.229,0,0,0,57.4,717.082H310.139a34.242,34.242,0,0,0,34.271-34.264V55.688a34.252,34.252,0,0,0-34.271-34.271H277.578a4.3,4.3,0,0,0-4.285,4.288v4.279A17.064,17.064,0,0,1,268.275,42.1,17.03,17.03,0,0,1,256.16,47.12H113.086a18.832,18.832,0,0,1-18.844-18.85V25.628a4.29,4.29,0,0,0-1.283-2.98,4.247,4.247,0,0,0-3-1.231Z" fill="#fff"/>
      <g id="phone" transform="translate(161.066 23.988)">
        <path id="camera" d="M104.4-960.86a5.139,5.139,0,0,1,5.14-5.14,5.14,5.14,0,0,1,5.141,5.14,5.141,5.141,0,0,1-5.141,5.141A5.14,5.14,0,0,1,104.4-960.86Zm-54.831,2.571A2.571,2.571,0,0,1,47-960.86a2.57,2.57,0,0,1,2.571-2.57H89.837a2.57,2.57,0,0,1,2.57,2.57,2.571,2.571,0,0,1-2.57,2.571Z" transform="translate(-47 966)" fill="#eeeef2"/>
      </g>
    </g>
  </g>
</svg>
