<?xml version="1.0" encoding="UTF-8"?>
<svg xmlns="http://www.w3.org/2000/svg" height="615" viewBox="0 0 291 615" width="291"><path d="m14.9464178 83.4949555 2.4257899-2.3406639-.0089591 458.4530294-2.4534544-2.495362 260.6286548.039479-2.396911 2.398403-.023447-458.4925078 2.410152 2.4376223zm260.5844512-2.3964176.023447 458.4899901-260.6286554-.039478.008959-458.4505121zm-182.6006698-28.9647627c3.2032338 0 5.7999679-2.593454 5.7999679-5.7926417 0-3.1991876-2.5967341-5.7926416-5.7999679-5.7926416-3.2032339 0-5.799968 2.593454-5.799968 5.7926416 0 3.1991877 2.5967341 5.7926417 5.799968 5.7926417zm49.2997278-17.377925c1.601617 0 2.899984-1.2967271 2.899984-2.8963209s-1.298367-2.8963208-2.899984-2.8963208-2.899984 1.296727-2.899984 2.8963208 1.298367 2.8963209 2.899984 2.8963209zm-26.099856 14.4816042c0-1.5995938 1.290337-2.8963209 2.899559-2.8963209h46.400593c1.601382 0 2.899559 1.2999819 2.899559 2.8963209 0 1.5995938-1.290337 2.8963208-2.899559 2.8963208h-46.400593c-1.601382 0-2.899559-1.2999818-2.899559-2.8963208zm52.400384 526.9331126c0-12.796751-10.386936-23.170567-23.199871-23.170567-12.812936 0-23.199872 10.373816-23.199872 23.170567 0 12.79675 10.386936 23.170566 23.199872 23.170566 12.812935 0 23.199871-10.373816 23.199871-23.170566zm-40.399743.207359c0-9.597563 7.790202-17.377926 17.399904-17.377926 9.609701 0 17.399904 7.780363 17.399904 17.377926s-7.790203 17.377925-17.399904 17.377925c-9.609702 0-17.399904-7.780362-17.399904-17.377925zm-122.20003199-8.697921c0 22.370991 18.20333049 40.547373 40.63244649 40.547373h197.1335685c22.472699 0 40.632446-18.136807 40.632446-40.547373v-521.33999c0-22.3709918-18.20333-40.54737331-40.632446-40.54737331h-197.1335685c-22.4726992 0-40.63244649 18.13680641-40.63244649 40.54737331zm40.63244649-567.680005h197.1335685c25.643914 0 46.432414 20.7813829 46.432414 46.340015v521.33999c0 25.592883-20.739589 46.340015-46.432414 46.340015h-197.1335685c-25.6439144 0-46.43241444-20.781383-46.43241444-46.340015v-521.33999c0-25.5928836 20.73958914-46.340015 46.43241444-46.340015z" fill="#1d4c5c"/></svg>
